Coordinates
version=1
nRows=9
nColumns=24
inDegrees=yes

Units are S.I. units (second, meters, Newtons, ...)
Angles are in degrees.

endheader
time	pelvis_tilt	pelvis_list	pelvis_rotation	pelvis_tx	pelvis_ty	pelvis_tz	hip_flexion_r	hip_adduction_r	hip_rotation_r	knee_angle_r	ankle_angle_r	subtalar_angle_r	mtp_angle_r	hip_flexion_l	hip_adduction_l	hip_rotation_l	knee_angle_l	ankle_angle_l	subtalar_angle_l	mtp_angle_l	lumbar_extension	lumbar_bending	lumbar_rotation
      2.08500000	     10.77372591	     -6.70229859	      8.17640884	      0.20869090	      0.95058252	      0.03619593	     -4.57256847	     12.00792644	    -13.11007815	    -11.96299801	     18.08035063	    -12.90618396	     12.96625257	      8.50988554	    -10.45286470	      0.43903366	    -66.68969555	     13.74102917	    -10.23793335	     27.02411186	    -19.02622419	      9.58326626	     -0.90268178
      2.09000000	     10.92015189	     -6.44278177	      8.12704131	      0.21390971	      0.95158413	      0.03648192	     -5.30539477	     11.85566288	    -12.90875081	    -11.60489791	     18.11579756	    -12.95741591	     12.99370643	      8.69278103	    -10.15073163	      0.17562115	    -66.08622144	     14.21214311	     -9.93554124	     26.63652207	    -19.21388050	      9.29462467	     -0.94330049
      2.09500000	     11.05670891	     -6.18502081	      8.08015206	      0.21909180	      0.95252914	      0.03674496	     -6.02114155	     11.69923192	    -12.71604256	    -11.25314617	     18.16821545	    -12.98806474	     13.02728398	      8.87604815	     -9.83977050	     -0.07360106	    -65.42826937	     14.64696818	     -9.63338447	     26.29501295	    -19.39405185	      9.00808431	     -0.96680484
      2.10000000	     11.21214696	     -5.90627782	      8.03340519	      0.22428792	      0.95349501	      0.03699612	     -6.75219624	     11.51709718	    -12.58863574	    -10.91603488	     18.17094507	    -13.02196818	     13.08957530	      9.00105866	     -9.51372382	     -0.35829257	    -64.67888753	     15.09960017	     -9.41475162	     25.69093255	    -19.59619826	      8.70070911	     -1.03852440
      2.10500000	     11.31066011	     -5.64911785	      7.95854096	      0.22943802	      0.95430774	      0.03730423	     -7.40441522	     11.34434764	    -12.39156081	    -10.60713238	     18.26363468	    -13.01337211	     13.13039387	      9.18928320	     -9.21396410	     -0.66026103	    -63.90384770	     15.49057937	     -9.08449284	     25.44094520	    -19.73997922	      8.39844326	     -1.06412834
      2.11000000	     11.44247758	     -5.36040258	      7.88896035	      0.23459231	      0.95516792	      0.03756481	     -8.09736108	     11.13731100	    -12.24604685	    -10.29470721	     18.33123486	    -13.00109865	     13.16769369	      9.30026145	     -8.87323697	     -0.96832217	    -63.03078018	     15.84514403	     -8.86758295	     25.17805943	    -19.92169309	      8.06992104	     -1.10179285
      2.11500000	     11.57222611	     -5.07290164	      7.81423040	      0.23971494	      0.95597600	      0.03782688	     -8.77619871	     10.92537482	    -12.11334892	    -10.00056277	     18.42104051	    -12.95886918	     13.20845857	      9.39657433	     -8.53229631	     -1.28042053	    -62.09802490	     16.17611794	     -8.67190341	     24.92656929	    -20.10483268	      7.73778468	     -1.12591483
      2.12000000	     11.68872481	     -4.77474189	      7.73415290	      0.24483742	      0.95674279	      0.03808120	     -9.42887692	     10.69353671	    -12.00267873	     -9.73190377	     18.52102260	    -12.89801680	     13.24950413	      9.47939247	     -8.17697021	     -1.60565108	    -61.09182015	     16.47436573	     -8.52637446	     24.68727397	    -20.27262235	      7.39181039	     -1.16496102
      2.12500000	     11.81830905	     -4.47167675	      7.64652815	      0.24995429	      0.95749335	      0.03832289	    -10.08774030	     10.45006905	    -11.92446081	     -9.47947192	     18.61380089	    -12.79720395	     13.29113325	      9.51838539	     -7.81898002	     -1.95298858	    -60.01016981	     16.75908971	     -8.43307209	     24.43185801	    -20.45671987	      7.03964512	     -1.20523191
